<svg width="46" height="46" viewBox="0 0 46 46" fill="none" xmlns="http://www.w3.org/2000/svg">
<rect x="-0.5" y="0.5" width="45" height="45" rx="22.5" transform="matrix(-1 0 0 1 45 0)" stroke="black"/>
<path d="M31 22C31.5523 22 32 22.4477 32 23C32 23.5523 31.5523 24 31 24L31 22ZM15.2929 23.7071C14.9024 23.3166 14.9024 22.6834 15.2929 22.2929L21.6569 15.9289C22.0474 15.5384 22.6805 15.5384 23.0711 15.9289C23.4616 16.3195 23.4616 16.9526 23.0711 17.3431L17.4142 23L23.0711 28.6569C23.4616 29.0474 23.4616 29.6805 23.0711 30.0711C22.6805 30.4616 22.0474 30.4616 21.6569 30.0711L15.2929 23.7071ZM31 24L16 24L16 22L31 22L31 24Z" fill="black"/>
</svg>
