<svg width="140" height="58" viewBox="0 0 140 58" fill="none" xmlns="http://www.w3.org/2000/svg">
<g clip-path="url(#clip0_2114_1069)">
<path d="M127.309 41.3452C126.96 41.3452 126.719 41.1033 126.719 40.7554V23.4738H120.849C120.5 23.4738 120.259 23.233 120.259 22.8847V20.5009C120.259 20.1518 120.5 19.9103 120.849 19.9103H136.475C136.824 19.9103 137.064 20.152 137.064 20.5009V22.8846C137.064 23.2326 136.824 23.4738 136.475 23.4738H130.605V40.7552C130.605 41.1033 130.364 41.3452 130.016 41.3452H127.309ZM82.3383 32.7173L79.2566 23.8762L76.1472 32.7173H82.3383ZM89.1733 40.6469C89.308 40.9962 89.0931 41.3452 88.7178 41.3452H85.9308C85.5285 41.3452 85.287 41.1582 85.1526 40.7814L83.5719 36.2281H74.9152L73.3318 40.7814C73.1988 41.1584 72.9566 41.3452 72.5554 41.3452H69.9296C69.5806 41.3452 69.339 40.996 69.4732 40.6469L76.7366 20.4473C76.8711 20.0709 77.1122 19.9112 77.5134 19.9112H81.1051C81.5075 19.9112 81.7756 20.0711 81.9096 20.4473L89.1733 40.6469ZM109.993 38.451C111.708 38.451 112.861 37.6218 113.799 36.2011L109.458 31.5386C107.795 32.4771 106.723 33.4136 106.723 35.2896C106.723 37.1387 108.223 38.451 109.993 38.451ZM111.199 22.7502C109.806 22.7502 109.002 23.6353 109.002 24.8139C109.002 25.7248 109.483 26.5287 110.583 27.7079C112.485 26.6086 113.29 25.9391 113.29 24.7606C113.29 23.6612 112.593 22.7502 111.199 22.7502ZM123.074 40.5949C123.422 40.9703 123.208 41.3452 122.778 41.3452H119.374C118.919 41.3452 118.677 41.2375 118.383 40.8888L116.346 38.6392C114.979 40.4613 113.074 41.8273 109.912 41.8273C105.999 41.8273 102.916 39.4697 102.916 35.4247C102.916 32.3158 104.579 30.6542 107.099 29.2613C105.865 27.8414 105.303 26.3409 105.303 25.0287C105.303 21.7055 107.635 19.4285 111.145 19.4285C114.737 19.4285 116.935 21.5459 116.935 24.68C116.935 27.3593 115.006 28.8584 112.968 29.9845L115.97 33.2275L117.659 30.2792C117.873 29.9314 118.114 29.797 118.542 29.797H121.142C121.571 29.797 121.813 30.0925 121.545 30.5477L118.543 35.6911L123.074 40.5949ZM96.3251 41.3452C96.6736 41.3452 96.916 41.1033 96.916 40.7554V23.4738H102.785C103.133 23.4738 103.374 23.233 103.374 22.8847V20.5009C103.374 20.1518 103.133 19.9103 102.785 19.9103H87.1582C86.8093 19.9103 86.5686 20.152 86.5686 20.5009V22.8846C86.5686 23.2326 86.8094 23.4738 87.1582 23.4738H93.0272V40.7552C93.0272 41.1033 93.2693 41.3452 93.6173 41.3452H96.3251Z" fill="#5C5965"/>
<path d="M17.0011 51.7688C21.5466 55.2875 27.2521 57.4016 33.4423 57.4016C40.2164 57.4016 46.3919 54.8866 51.105 50.7582C51.1622 50.7077 51.134 50.6743 51.0777 50.7077C48.9627 52.1202 42.9349 55.2035 33.4425 55.2035C25.1932 55.2035 19.98 53.3629 17.036 51.7196C16.9797 51.6918 16.9588 51.7341 17.0011 51.7688ZM35.2622 53.1387C41.8602 53.1387 49.1105 51.3402 53.4467 47.7799C54.6334 46.8098 55.7637 45.5188 56.776 43.7837C57.3587 42.7853 57.9287 41.5992 58.3929 40.4333C58.4135 40.3765 58.3784 40.3488 58.3357 40.4127C54.3032 46.3469 42.6261 50.0483 30.5689 50.0483C22.0465 50.0483 12.8764 47.323 9.2863 42.1191C9.25096 42.071 9.21562 42.0916 9.23714 42.1469C12.5816 49.2555 22.7279 53.1387 35.2622 53.1387ZM28.0534 41.346C14.331 41.346 7.86065 34.9549 6.68693 30.5935C6.67246 30.5303 6.63086 30.5442 6.63086 30.6009C6.63086 32.0692 6.77782 33.964 7.03066 35.2217C7.15128 35.8339 7.64953 36.7947 8.38003 37.5605C11.7028 41.024 19.9871 45.8772 34.3341 45.8772C53.8812 45.8772 58.3506 39.3659 59.2633 37.2246C59.916 35.6932 60.2541 32.9258 60.2541 30.601C60.2541 30.0385 60.24 29.5891 60.2187 29.148C60.2187 29.0764 60.1773 29.0705 60.1629 29.1403C59.1861 34.3798 42.4853 41.346 28.0534 41.346ZM9.21562 19.1034C8.42932 20.6638 7.55773 23.2965 7.29863 24.659C7.18505 25.2428 7.23343 25.5232 7.43816 25.9588C9.08288 29.4484 17.4022 35.0318 36.8079 35.0318C48.6468 35.0318 57.8435 32.1233 59.3335 26.8157C59.6078 25.8386 59.6226 24.807 59.2701 23.417C58.8763 21.8636 58.1388 20.0523 57.5145 18.7804C57.4939 18.7389 57.4575 18.745 57.465 18.7941C57.6968 25.7555 38.2835 30.2422 28.4883 30.2422C17.8784 30.2422 9.02681 26.0149 9.02681 20.6771C9.02681 20.1643 9.13295 19.6513 9.26544 19.1175C9.27874 19.0687 9.23701 19.0606 9.21562 19.1034ZM51.1485 10.5561C51.2611 10.7327 51.3173 10.9211 51.3173 11.1747C51.3173 14.1525 42.2036 19.4204 27.6959 19.4204C17.036 19.4204 15.0403 15.4659 15.0403 12.951C15.0403 12.0521 15.385 11.1322 16.1444 10.198C16.1858 10.1425 16.1506 10.1211 16.1028 10.1624C14.7155 11.3379 13.4512 12.6512 12.3293 14.0821C11.796 14.7563 11.4649 15.3535 11.4649 15.7113C11.4649 20.923 24.5329 24.7016 36.7519 24.7016C49.7715 24.7016 55.582 20.4514 55.582 16.7163C55.582 15.3814 55.0624 14.6021 53.7331 13.0913C52.8702 12.1085 52.0541 11.3083 51.1902 10.5205C51.1485 10.4861 51.1194 10.5141 51.1485 10.5561ZM47.1571 7.57899C43.139 5.17052 38.4729 3.80029 33.4425 3.80029C28.3771 3.80029 23.5704 5.21838 19.5379 7.69061C18.3283 8.43506 17.6475 9.03163 17.6475 9.7985C17.6475 12.0591 22.9306 14.4897 32.3035 14.4897C41.5792 14.4897 48.7735 11.8274 48.7735 9.26465C48.7735 8.65295 48.2389 8.22498 47.1571 7.57899Z" fill="#5C5965"/>
</g>
<defs>
<clipPath id="clip0_2114_1069">
<rect width="138.327" height="56.8248" fill="white" transform="translate(0.958984 0.577393)"/>
</clipPath>
</defs>
</svg>
