<svg width="183" height="25" viewBox="0 0 183 25" fill="none" xmlns="http://www.w3.org/2000/svg">
<g clip-path="url(#clip0_2114_1072)">
<path d="M79.3207 16.289H91.3035L84.9675 5.83814L73.3386 24.7337H68.0464L82.1907 2.03593C82.8056 1.11906 83.8306 0.564941 84.9675 0.564941C86.0669 0.564941 87.0919 1.09981 87.6883 1.99781L101.889 24.7337H96.5964L94.0994 20.5114H81.9676L79.3211 16.289H79.3207ZM134.296 20.511V0.794069H129.805V22.441C129.805 23.0332 130.028 23.6066 130.457 24.046C130.886 24.4854 131.463 24.7337 132.097 24.7337H152.578L155.224 20.5114H134.296L134.296 20.511ZM59.9954 16.9764C64.3565 16.9764 67.8973 13.3656 67.8973 8.89487C67.8973 4.4238 64.3565 0.793706 59.9954 0.793706H40.3478V24.7341H44.8375V5.01677H59.6976C61.7848 5.01677 63.4618 6.75574 63.4618 8.8956C63.4618 11.0351 61.7848 12.7737 59.6976 12.7737L47.0366 12.7548L60.4428 24.7341H66.9654L57.9458 16.9772H59.9958L59.9954 16.9764ZM12.7116 24.7337C6.26547 24.7341 1.03418 19.3843 1.03418 12.7737C1.03418 6.16277 6.26547 0.794432 12.7116 0.794432H26.2839C32.7315 0.794432 37.9589 6.16277 37.9589 12.7737C37.9589 19.3843 32.7315 24.7337 26.2836 24.7337H12.7116ZM25.9821 20.5114C30.1583 20.5114 33.5408 17.053 33.5408 12.7733C33.5408 8.49399 30.1583 5.01677 25.9821 5.01677H13.012C8.83719 5.01677 5.45297 8.49399 5.45297 12.7737C5.45297 17.053 8.83719 20.5114 13.0116 20.5114H25.9818H25.9821ZM111.262 24.7337C104.815 24.7337 99.5779 19.3843 99.5779 12.7737C99.5779 6.16277 104.815 0.794432 111.262 0.794432H127.383L124.755 5.01677H111.561C107.386 5.01677 103.995 8.49399 103.995 12.7737C103.995 17.053 107.386 20.5114 111.561 20.5114H127.755L125.109 24.7337H111.262ZM166.182 20.5114C162.734 20.5114 159.809 18.1424 158.914 14.8751H178.109L180.755 10.6527H158.914C159.809 7.40464 162.734 5.01677 166.182 5.01677H179.358L182.022 0.793706H165.884C159.436 0.793706 154.199 6.16241 154.199 12.773C154.199 19.3839 159.436 24.7334 165.884 24.7334H179.73L182.376 20.5114H166.182H166.182Z" fill="#5C5965"/>
</g>
<defs>
<clipPath id="clip0_2114_1072">
<rect width="181.424" height="24.3289" fill="white" transform="translate(0.992188 0.565186)"/>
</clipPath>
</defs>
</svg>
