<svg width="145" height="54" viewBox="0 0 145 54" fill="none" xmlns="http://www.w3.org/2000/svg">
<path fill-rule="evenodd" clip-rule="evenodd" d="M41.374 53.8974C48.0557 53.8974 53.4722 48.4811 53.4722 41.7994H53.4725V12.8463C53.4725 6.1648 48.056 0.748291 41.3742 0.748291H12.2213C5.53956 0.748291 0.123047 6.1648 0.123047 12.8463V41.7994C0.123047 48.4811 5.53956 53.8974 12.2213 53.8974H41.374ZM26.6819 45.7697C26.6738 45.7697 26.6657 45.7697 26.6576 45.7697H26.7062C26.6981 45.7697 26.69 45.7697 26.6819 45.7697ZM33.0297 43.0858C33.0297 43.0858 30.3145 45.7578 26.6819 45.7697C23.0494 45.7578 20.3341 43.0858 20.3341 43.0858C20.0943 42.8855 19.8216 42.6938 19.8216 42.6938C17.6398 41.2604 14.1025 42.2937 14.1025 42.2937C12.8174 42.5981 12.7803 41.6271 12.7803 41.6271L12.6809 40.5269C12.587 39.4481 10.9287 39.4596 10.9287 39.4596C8.74614 39.3741 7.82665 38.48 7.44797 37.8492C7.04106 37.2441 7.80939 37.0733 7.80939 37.0733C13.0784 35.6023 15.6342 30.6016 15.6342 30.6016C16.8243 28.5121 15.1933 27.6674 15.1933 27.6674C14.7526 27.3562 12.5928 26.6448 12.5928 26.6448C10.81 25.9301 11.4026 24.689 11.4026 24.689C12.064 23.3552 13.6064 24.2444 13.6064 24.2444C14.3358 24.6314 14.8847 24.5998 14.8847 24.5998C16.1031 24.6231 16.2495 24.3621 16.2495 24.3621L16.2077 18.576C16.2077 13.2848 20.8744 8.99542 26.6317 8.99542H26.7316C32.4886 8.99542 37.1556 13.2848 37.1556 18.576L37.1138 24.3621C37.1138 24.3621 37.2602 24.6231 38.4786 24.5998C38.4786 24.5998 39.0275 24.6314 39.7569 24.2444C39.7569 24.2444 41.2996 23.355 41.9607 24.689C41.9607 24.689 42.5528 25.9301 40.7705 26.6448C40.7705 26.6448 38.6109 27.3562 38.17 27.6674C38.17 27.6674 36.5389 28.5123 37.7291 30.6016C37.7291 30.6016 40.2854 35.6023 45.5542 37.0733C45.5542 37.0733 46.3222 37.2443 45.9158 37.8492C45.5372 38.48 44.6179 39.3741 42.4346 39.4596C42.4346 39.4596 40.7765 39.4481 40.6827 40.5269L40.5835 41.6271C40.5835 41.6271 40.5464 42.5981 39.2611 42.2937C39.2611 42.2937 35.7238 41.2604 33.5417 42.6938C33.5417 42.6938 33.2692 42.8855 33.0297 43.0858Z" fill="#5C5965"/>
<path d="M65.9024 31.6107C67.4209 32.3721 70.8448 33.5293 73.2528 33.5293C75.846 33.5293 77.2164 32.4779 77.2164 30.8832C77.2164 29.3604 76.0312 28.4906 73.0311 27.4392C68.8818 26.0254 66.1781 23.7778 66.1781 20.2253C66.1781 16.0565 69.7342 12.8665 75.6243 12.8665C78.4391 12.8665 80.5138 13.4464 81.9958 14.0988L82.0408 18.9856C81.0408 18.5142 77.9576 17.3978 75.5132 17.3978C73.0681 17.3978 71.8829 18.4851 71.8829 19.7539C71.8829 21.3121 73.2909 22.001 76.5132 23.1973C80.9217 24.7926 82.9964 27.0403 82.9964 30.4837C82.9964 34.5801 79.773 38.0965 72.9205 38.0965C70.0676 38.0965 67.2522 37.3352 65.8447 36.5738L65.9024 31.6107ZM131.455 20.2534V23.0021C132.501 21.0661 134.01 19.9433 137.265 19.9433C141.143 19.9433 144.195 22.9439 144.195 28.599C144.195 35.0515 140.334 38.0965 136.383 38.0965C134.244 38.0965 132.577 37.2262 131.78 36.0663L131.378 35.5473V45.5374H126.197V20.2915L131.455 20.2534ZM131.358 30.2128C131.358 30.6647 131.395 31.079 131.471 31.4165C131.847 32.9599 133.164 34.1261 134.821 34.1261C137.305 34.1261 138.774 32.0568 138.774 28.9329C138.774 25.9979 137.457 23.7772 134.896 23.7772C133.277 23.7772 131.847 24.9815 131.471 26.6757C131.395 26.9768 131.358 27.353 131.358 27.6916V30.2128ZM96.8855 19.5729C94.2918 19.5729 92.5574 20.8454 91.6558 21.9169V19.9036H86.1927V24.4312C86.1853 24.8196 86.1806 25.2154 86.1806 25.627V37.6981H86.1927V37.7161L86.2012 37.6981H91.8108V27.4757C91.8108 26.9683 91.8854 26.4609 92.033 26.0979C92.4034 25.0831 93.3299 24.0317 94.8855 24.0317C96.9231 24.0317 97.7379 25.5905 97.7379 27.8747V37.6981H103.369V27.1858C103.368 21.9656 101.159 19.5729 96.8855 19.5729ZM121.818 37.7167V27.2218C121.818 23.0529 119.961 19.5729 114.052 19.5729C111.154 19.5729 108.907 20.274 107.586 20.9163V25.1339C108.786 24.4175 111.305 23.5312 113.073 23.5312C115.792 23.5312 116.373 25.3836 116.373 26.326V26.5794C110.101 26.5434 105.896 28.0551 105.896 32.6589C105.896 35.4865 108.034 38.0965 111.623 38.0965C113.726 38.0965 115.538 37.3352 116.698 35.9214H116.807L116.767 37.6976H120.871L121.818 37.7167ZM116.309 31.4509C116.309 31.7758 116.271 32.0991 116.197 32.3869C115.824 33.5023 114.668 34.4023 113.25 34.4023C111.982 34.4023 111.012 33.7187 111.012 32.3155C111.012 30.1927 113.324 29.5091 116.309 29.5456V31.4509Z" fill="#5C5965"/>
</svg>
