<svg width="113" height="54" viewBox="0 0 113 54" fill="none" xmlns="http://www.w3.org/2000/svg">
<path d="M26.9896 53.9629C41.7076 53.9629 53.6402 42.0309 53.6402 27.3129C53.6402 12.5948 41.7083 0.662842 26.9896 0.662842C12.2708 0.662842 0.338867 12.5948 0.338867 27.3129C0.338867 42.0309 12.2708 53.9629 26.9896 53.9629Z" fill="#5C5965"/>
<path d="M33.4783 36.6917H27.9593V15.8328H25.9126V38.7499H27.9593V38.7364H33.4783V36.6917Z" fill="white"/>
<path d="M47.254 28.1666H33.511V26.1199H49.2669C49.2879 26.5156 49.298 26.912 49.298 27.3131C49.298 39.6346 39.3095 49.6225 26.9886 49.6225C14.6677 49.6225 4.6792 39.6346 4.6792 27.3131C4.6792 14.9915 14.6677 5.00366 26.9893 5.00366C27.3141 5.00366 27.6382 5.01041 27.9603 5.02459L27.9576 7.05579C27.635 7.0409 27.3122 7.03347 26.9893 7.03351C15.7893 7.03351 6.70904 16.1131 6.70904 27.3131C6.70904 38.5137 15.7887 47.5926 26.9893 47.5926C37.884 47.5926 46.7718 39.0019 47.2486 28.224L47.254 28.1666Z" fill="white"/>
<path d="M18.6671 22.0074C19.4986 22.0074 20.296 21.6771 20.8839 21.0892C21.4718 20.5013 21.8021 19.7039 21.8021 18.8725C21.8021 18.041 21.4718 17.2437 20.8839 16.6557C20.296 16.0678 19.4986 15.7375 18.6671 15.7375C17.8357 15.7375 17.0383 16.0678 16.4504 16.6557C15.8625 17.2437 15.5322 18.041 15.5322 18.8725C15.5322 19.7039 15.8625 20.5013 16.4504 21.0892C17.0383 21.6771 17.8357 22.0074 18.6671 22.0074Z" fill="white"/>
<path d="M66.873 40.3941H85.9162V34.6429H73.8647V14.0487H66.873V40.3941ZM108.925 15.9036C106.741 14.2121 103.93 13.3545 100.576 13.3545C96.5921 13.3545 93.2638 14.5781 90.9496 16.8902C88.5342 19.307 87.2553 22.867 87.2553 27.1853C87.2553 31.7987 88.6071 35.6916 91.0617 38.1441C92.9889 40.0707 95.5563 41.087 98.4944 41.087C104.944 41.087 106.427 37.2211 106.427 37.2211V40.3928H112.252V25.514H100.658V30.1699H105.994C105.994 30.1699 106.045 36.0319 100.538 36.0319C99.1386 36.0319 97.892 35.5241 96.9332 34.5652C95.4388 33.0722 94.6487 30.5562 94.6487 27.2947C94.6487 21.8925 96.7961 18.6675 100.391 18.6675C102.637 18.6675 104.325 20.0464 104.758 22.1363H112.175C111.791 19.0996 110.958 17.5168 108.925 15.9036Z" fill="#5C5965"/>
</svg>
