<svg width="46" height="46" viewBox="0 0 46 46" fill="none" xmlns="http://www.w3.org/2000/svg">
<rect x="0.5" y="0.5" width="45" height="45" rx="22.5" stroke="white"/>
<path fill-rule="evenodd" clip-rule="evenodd" d="M18.3137 31.1611V18.9074H14.2408V31.1611H18.3137ZM16.2772 17.2344C17.6975 17.2344 18.5815 16.2934 18.5815 15.1175C18.5551 13.9151 17.6975 13.0003 16.3041 13.0003C14.9109 13.0003 14 13.9151 14 15.1175C14 16.2934 14.8838 17.2344 16.2507 17.2344H16.2772Z" fill="white"/>
<path fill-rule="evenodd" clip-rule="evenodd" d="M20.5684 31.1611H24.6412V24.3181C24.6412 23.9519 24.6677 23.586 24.7752 23.3242C25.0697 22.5925 25.7398 21.8347 26.865 21.8347C28.3388 21.8347 28.9283 22.9584 28.9283 24.6057V31.1611H33.0009V24.135C33.0009 20.3712 30.9915 18.6199 28.3119 18.6199C26.1147 18.6199 25.1501 19.848 24.6141 20.6845H24.6413V18.9074H20.5685C20.6219 20.0572 20.5684 31.1611 20.5684 31.1611Z" fill="white"/>
</svg>
