<svg width="500" height="78" viewBox="0 0 500 78" fill="none" xmlns="http://www.w3.org/2000/svg">
<g clip-path="url(#clip0_1002_1735)">
<path d="M142.552 69.087C137.483 63.6557 134.948 56.9208 134.948 48.8823C134.948 40.8439 137.483 34.1452 142.552 28.7863C147.621 23.3549 153.777 20.6392 161.019 20.6392C166.161 20.6392 170.506 21.9065 174.054 24.4412C177.603 26.9034 180.101 29.6191 181.549 32.5882H181.658V21.7255H188.176V76.0392H181.658V65.1764H181.549C180.101 68.1456 177.603 70.8975 174.054 73.4321C170.506 75.8943 166.161 77.1255 161.019 77.1255C153.777 77.1255 147.621 74.446 142.552 69.087ZM147.332 33.0227C143.421 37.223 141.466 42.5095 141.466 48.8823C141.466 55.2551 143.421 60.5779 147.332 64.8506C151.315 69.0508 156.058 71.1509 161.562 71.1509C166.921 71.1509 171.592 69.0508 175.575 64.8506C179.63 60.5779 181.658 55.2551 181.658 48.8823C181.658 42.5095 179.63 37.223 175.575 33.0227C171.592 28.7501 166.921 26.6137 161.562 26.6137C156.058 26.6137 151.315 28.7501 147.332 33.0227Z" fill="url(#paint0_linear_1002_1735)"/>
<path d="M197.434 27.7V21.7255H205.038V9.77649H211.556V21.7255H229.48V27.7H211.556V70.0647H230.023V76.0392H205.038V27.7H197.434Z" fill="url(#paint1_linear_1002_1735)"/>
<path d="M243.652 69.087C238.583 63.6557 236.048 56.9208 236.048 48.8823C236.048 40.8439 238.583 34.1452 243.652 28.7863C248.721 23.3549 254.877 20.6392 262.119 20.6392C267.26 20.6392 271.605 21.9065 275.154 24.4412C278.702 26.9034 281.201 29.6191 282.649 32.5882H282.758V21.7255H289.276V76.0392H282.758V65.1764H282.649C281.201 68.1456 278.702 70.8975 275.154 73.4321C271.605 75.8943 267.26 77.1255 262.119 77.1255C254.877 77.1255 248.721 74.446 243.652 69.087ZM248.432 33.0227C244.521 37.223 242.566 42.5095 242.566 48.8823C242.566 55.2551 244.521 60.5779 248.432 64.8506C252.415 69.0508 257.158 71.1509 262.662 71.1509C268.021 71.1509 272.692 69.0508 276.675 64.8506C280.73 60.5779 282.758 55.2551 282.758 48.8823C282.758 42.5095 280.73 37.223 276.675 33.0227C272.692 28.7501 268.021 26.6137 262.662 26.6137C257.158 26.6137 252.415 28.7501 248.432 33.0227Z" fill="url(#paint2_linear_1002_1735)"/>
<path d="M302.336 76.0392V0H313.742V65.7196H326.234V76.0392H302.336Z" fill="url(#paint3_linear_1002_1735)"/>
<path d="M335.798 69.1956C330.873 63.8367 328.411 56.8845 328.411 48.3392C328.411 39.7938 330.873 32.8779 335.798 27.5914C340.795 22.2324 347.023 19.5529 354.482 19.5529C359.189 19.5529 363.498 20.9289 367.408 23.6808C369.074 24.8395 370.559 26.1792 371.862 27.7H372.405V20.6392H383.811V76.0392H372.405V68.4353H371.862C370.776 69.956 369.291 71.4044 367.408 72.7804C363.498 75.6771 359.189 77.1255 354.482 77.1255C347.023 77.1255 340.795 74.4822 335.798 69.1956ZM344.705 34.6521C341.808 37.8385 340.36 42.4009 340.36 48.3392C340.36 54.2775 341.808 58.8398 344.705 62.0262C347.602 65.2126 351.585 66.8058 356.654 66.8058C361.434 66.8058 365.236 65.2126 368.06 62.0262C370.957 58.7674 372.405 54.2051 372.405 48.3392C372.405 42.4733 370.957 37.9472 368.06 34.7608C365.236 31.5019 361.434 29.8725 356.654 29.8725C351.585 29.8725 347.602 31.4657 344.705 34.6521Z" fill="url(#paint4_linear_1002_1735)"/>
<path d="M394.631 76.0392V0H406.037V42.3647H414.184L431.022 20.6392H444.057L423.961 46.1666L445.686 76.0392H431.565L414.727 52.6843H406.037V76.0392H394.631Z" fill="url(#paint5_linear_1002_1735)"/>
<path d="M451.661 68.8698C446.229 63.2936 443.514 56.45 443.514 48.3392C443.514 40.2283 446.229 33.421 451.661 27.9172C457.164 22.341 463.863 19.5529 471.757 19.5529C479.65 19.5529 486.313 22.341 491.744 27.9172C497.248 33.421 500 40.2283 500 48.3392V52.1411H454.92C455.789 56.7035 457.78 60.2882 460.894 62.8953C464.008 65.5023 467.629 66.8058 471.757 66.8058C476.826 66.8058 480.882 65.5385 483.923 63.0039C485.299 61.99 486.494 60.7227 487.508 59.2019H499.457C497.936 62.7504 496.017 65.7558 493.7 68.218C487.761 74.1563 480.447 77.1255 471.757 77.1255C463.863 77.1255 457.164 74.3736 451.661 68.8698ZM455.463 42.9078H488.051C487.399 39.2869 485.661 36.2091 482.837 33.6745C480.085 31.1399 476.392 29.8725 471.757 29.8725C467.846 29.8725 464.37 31.0674 461.329 33.4572C458.287 35.7746 456.332 38.9248 455.463 42.9078Z" fill="url(#paint6_linear_1002_1735)"/>
<mask id="mask0_1002_1735" style="mask-type:luminance" maskUnits="userSpaceOnUse" x="0" y="0" width="144" height="78">
<path d="M143.573 0H0V77.282H143.573V0Z" fill="white"/>
</mask>
<g mask="url(#mask0_1002_1735)">
<path d="M93.0426 71.043C92.2067 71.4885 91.5559 71.8326 90.9109 72.1797C88.2474 73.5825 85.4256 74.6613 82.5056 75.3932C75.7692 77.1518 68.9114 77.3369 62.0043 77.2733C61.5473 77.2733 61.2147 77.2328 61.1916 76.6398C61.1684 76.0469 60.697 76.2205 60.3585 76.2609C59.0454 76.4201 57.738 76.663 56.4191 76.7613C53.6598 76.9696 50.8946 77.2385 48.1324 77.2472C32.444 77.2935 16.7528 77.2675 1.06151 77.2675C0.00578475 77.2675 0.0028924 77.2675 0.0028924 76.1741C0.014462 52.9136 0.0269957 29.6548 0.0404936 6.398C0.0404936 4.62785 0 2.83167 0 1.04995C0 9.89437e-06 0 9.86084e-06 1.03837 9.86084e-06C12.9473 9.86084e-06 24.8534 9.86084e-06 36.7566 9.86084e-06C41.529 9.86084e-06 46.3015 -0.0636228 51.0711 0.0925666C54.0502 0.188016 57.0149 0.642122 59.9854 0.960286C60.5639 1.01814 61.2349 1.30449 61.2783 0.28925C61.2783 0.190908 61.611 0.0289339 61.7874 0.0318263C64.8938 0.0694274 68.0089 0.00579464 71.1038 0.222725C74.0795 0.439577 77.0422 0.807385 79.9806 1.32473C84.213 2.03239 88.2795 3.51079 91.9782 5.68647L92.3542 5.90629C92.8662 6.19553 93.0542 6.00174 93.0484 5.46664C93.0484 4.26052 93.0484 3.05439 93.0484 1.85115C93.0484 1.65736 93.0484 1.46357 93.0484 1.27267C93.0137 0.694185 93.274 0.514857 93.8409 0.587167C100.297 1.38547 106.449 3.0486 111.913 6.76244C115.138 8.94208 117.855 11.7923 119.878 15.1185C121.667 18.1219 122.988 21.3805 123.795 24.782C124.622 28.0513 124.995 31.4187 124.905 34.7897C124.83 37.5115 124.842 40.239 124.905 42.9607C124.971 45.8752 124.66 48.7859 123.98 51.6206C123.034 55.6092 121.625 59.3982 119.369 62.846C117.099 66.3569 114.05 69.2982 110.461 71.4422C107.417 73.2562 104.109 74.5835 100.655 75.3758C98.5758 75.8675 96.4672 76.2436 94.3645 76.6282C93.0889 76.8596 93.0426 76.7815 93.0426 75.5176V71.043ZM35.8368 38.6424H35.8657C35.8657 46.0913 35.8657 53.5392 35.8657 60.9862C35.8657 61.6601 36.0537 61.9204 36.7653 61.9146C40.9101 61.8857 45.0549 61.9146 49.2026 61.8886C53.0148 61.8568 56.8096 61.6167 60.4829 60.4164C61.044 60.2341 61.3275 60.3903 61.2552 61.0122C61.1771 61.7006 61.4663 61.932 62.1634 61.9146C64.7174 61.8568 67.2714 61.8944 69.8254 61.8134C72.9116 61.715 75.9775 61.3998 78.9075 60.3267C81.2532 59.459 83.3271 58.2124 84.9497 56.2773C87.1942 53.5787 88.2904 50.3971 88.8747 47.0217C89.7134 41.9233 89.7884 36.7285 89.0974 31.6081C88.6838 28.3339 87.8016 25.1841 85.9736 22.3756C83.4312 18.465 79.5641 16.7585 75.1705 16.0123C70.777 15.266 66.3805 15.4193 61.9725 15.3904C61.3593 15.3904 61.261 15.6797 61.2581 16.1945C61.2581 17.0246 61.1626 17.0333 60.3672 16.8482C58.7157 16.4288 57.067 15.9081 55.4039 15.7896C52.0458 15.5321 48.6704 15.4569 45.3007 15.3846C42.4315 15.321 39.5622 15.3846 36.6958 15.3528C36.0248 15.3528 35.7645 15.5755 35.8281 16.2205C35.8382 16.4132 35.8382 16.6063 35.8281 16.799L35.8368 38.6424ZM17.5916 38.5643C17.5916 46.0614 17.5916 53.5575 17.5916 61.0527C17.5916 61.5386 17.6263 61.9059 18.2597 61.9031C21.7576 61.8915 25.2526 61.8915 28.7446 61.9031C29.2016 61.9031 29.4099 61.7006 29.4012 61.2494C29.4012 60.6246 29.4012 59.9979 29.4012 59.3693C29.4012 45.0539 29.4012 30.7375 29.4012 16.4201C29.4012 15.4049 29.381 15.3817 28.3397 15.3817H18.627C17.6089 15.3817 17.5916 15.3817 17.5916 16.449V38.5643ZM93.0629 38.6482V56.9426C93.0629 58.1719 93.0831 59.4011 93.0629 60.6275C93.0629 61.1481 93.2306 61.3419 93.7397 61.2291C94.2488 61.1163 94.6855 61.0498 95.1512 60.9399C98.0985 60.1908 100.777 58.947 102.862 56.6505C105.208 54.0473 106.333 50.8975 106.97 47.5452C107.782 43.1591 107.987 38.6822 107.58 34.2402C107.328 31.2465 106.845 28.3281 105.772 25.508C103.684 20.0125 99.5968 17.0911 93.9509 16.1048C93.0831 15.9544 93.0687 15.9978 93.0687 16.9002L93.0629 38.6482Z" fill="url(#paint7_linear_1002_1735)"/>
</g>
</g>
<defs>
<linearGradient id="paint0_linear_1002_1735" x1="134.948" y1="38.5627" x2="500" y2="38.5627" gradientUnits="userSpaceOnUse">
<stop stop-color="#FC7971"/>
<stop offset="0.739583" stop-color="#FDDF71"/>
<stop offset="1" stop-color="#71FDF5"/>
</linearGradient>
<linearGradient id="paint1_linear_1002_1735" x1="134.948" y1="38.5627" x2="500" y2="38.5627" gradientUnits="userSpaceOnUse">
<stop stop-color="#FC7971"/>
<stop offset="0.739583" stop-color="#FDDF71"/>
<stop offset="1" stop-color="#71FDF5"/>
</linearGradient>
<linearGradient id="paint2_linear_1002_1735" x1="134.948" y1="38.5627" x2="500" y2="38.5627" gradientUnits="userSpaceOnUse">
<stop stop-color="#FC7971"/>
<stop offset="0.739583" stop-color="#FDDF71"/>
<stop offset="1" stop-color="#71FDF5"/>
</linearGradient>
<linearGradient id="paint3_linear_1002_1735" x1="134.948" y1="38.5627" x2="500" y2="38.5627" gradientUnits="userSpaceOnUse">
<stop stop-color="#FC7971"/>
<stop offset="0.739583" stop-color="#FDDF71"/>
<stop offset="1" stop-color="#71FDF5"/>
</linearGradient>
<linearGradient id="paint4_linear_1002_1735" x1="134.948" y1="38.5627" x2="500" y2="38.5627" gradientUnits="userSpaceOnUse">
<stop stop-color="#FC7971"/>
<stop offset="0.739583" stop-color="#FDDF71"/>
<stop offset="1" stop-color="#71FDF5"/>
</linearGradient>
<linearGradient id="paint5_linear_1002_1735" x1="134.948" y1="38.5627" x2="500" y2="38.5627" gradientUnits="userSpaceOnUse">
<stop stop-color="#FC7971"/>
<stop offset="0.739583" stop-color="#FDDF71"/>
<stop offset="1" stop-color="#71FDF5"/>
</linearGradient>
<linearGradient id="paint6_linear_1002_1735" x1="134.948" y1="38.5627" x2="500" y2="38.5627" gradientUnits="userSpaceOnUse">
<stop stop-color="#FC7971"/>
<stop offset="0.739583" stop-color="#FDDF71"/>
<stop offset="1" stop-color="#71FDF5"/>
</linearGradient>
<linearGradient id="paint7_linear_1002_1735" x1="0" y1="38.6353" x2="124.918" y2="38.6353" gradientUnits="userSpaceOnUse">
<stop stop-color="#FC7971"/>
<stop offset="0.739583" stop-color="#FDDF71"/>
<stop offset="1" stop-color="#71FDF5"/>
</linearGradient>
<clipPath id="clip0_1002_1735">
<rect width="500" height="78" fill="white"/>
</clipPath>
</defs>
</svg>
