<svg width="144" height="23" viewBox="0 0 144 23" fill="none" xmlns="http://www.w3.org/2000/svg">
<path d="M41.0552 19.897C39.5952 18.3328 38.8652 16.3931 38.8652 14.0781C38.8652 11.763 39.5952 9.83379 41.0552 8.29042C42.5151 6.72619 44.2879 5.94407 46.3735 5.94407C47.8543 5.94407 49.1057 6.30906 50.1277 7.03903C51.1497 7.74815 51.8692 8.53027 52.2863 9.38538H52.3176V6.25692H54.1947V21.8992H52.3176V18.7708H52.2863C51.8692 19.6259 51.1497 20.4184 50.1277 21.1484C49.1057 21.8575 47.8543 22.2121 46.3735 22.2121C44.2879 22.2121 42.5151 21.4404 41.0552 19.897ZM42.4317 9.51052C41.3054 10.7202 40.7423 12.2427 40.7423 14.0781C40.7423 15.9134 41.3054 17.4464 42.4317 18.6769C43.5788 19.8866 44.9449 20.4914 46.53 20.4914C48.0733 20.4914 49.4186 19.8866 50.5657 18.6769C51.7336 17.4464 52.3176 15.9134 52.3176 14.0781C52.3176 12.2427 51.7336 10.7202 50.5657 9.51052C49.4186 8.27999 48.0733 7.66473 46.53 7.66473C44.9449 7.66473 43.5788 8.27999 42.4317 9.51052Z" fill="black"/>
<path d="M56.8612 7.97757V6.25692H59.0511V2.81561H60.9282V6.25692H66.0902V7.97757H60.9282V20.1786H66.2466V21.8992H59.0511V7.97757H56.8612Z" fill="black"/>
<path d="M70.1718 19.897C68.7119 18.3328 67.9819 16.3931 67.9819 14.0781C67.9819 11.763 68.7119 9.83379 70.1718 8.29042C71.6318 6.72619 73.4046 5.94407 75.4902 5.94407C76.971 5.94407 78.2224 6.30906 79.2444 7.03903C80.2663 7.74815 80.9859 8.53027 81.403 9.38538H81.4343V6.25692H83.3114V21.8992H81.4343V18.7708H81.403C80.9859 19.6259 80.2663 20.4184 79.2444 21.1484C78.2224 21.8575 76.971 22.2121 75.4902 22.2121C73.4046 22.2121 71.6318 21.4404 70.1718 19.897ZM71.5484 9.51052C70.4221 10.7202 69.859 12.2427 69.859 14.0781C69.859 15.9134 70.4221 17.4464 71.5484 18.6769C72.6955 19.8866 74.0615 20.4914 75.6466 20.4914C77.19 20.4914 78.5352 19.8866 79.6823 18.6769C80.8503 17.4464 81.4343 15.9134 81.4343 14.0781C81.4343 12.2427 80.8503 10.7202 79.6823 9.51052C78.5352 8.27999 77.19 7.66473 75.6466 7.66473C74.0615 7.66473 72.6955 8.27999 71.5484 9.51052Z" fill="black"/>
<path d="M87.0728 21.8992V0H90.3577V18.9272H93.9555V21.8992H87.0728Z" fill="black"/>
<path d="M96.7097 19.9283C95.2915 18.3849 94.5824 16.3827 94.5824 13.9216C94.5824 11.4606 95.2915 9.4688 96.7097 7.94629C98.1488 6.40291 99.9425 5.63123 102.091 5.63123C103.446 5.63123 104.687 6.0275 105.814 6.82004C106.293 7.15374 106.721 7.53959 107.096 7.97757H107.253V5.94407H110.538V21.8992H107.253V19.7093H107.096C106.783 20.1473 106.356 20.5644 105.814 20.9607C104.687 21.7949 103.446 22.2121 102.091 22.2121C99.9425 22.2121 98.1488 21.4508 96.7097 19.9283ZM99.2751 9.97979C98.4408 10.8975 98.0237 12.2114 98.0237 13.9216C98.0237 15.6319 98.4408 16.9458 99.2751 17.8635C100.109 18.7812 101.256 19.24 102.716 19.24C104.093 19.24 105.188 18.7812 106.001 17.8635C106.836 16.925 107.253 15.611 107.253 13.9216C107.253 12.2323 106.836 10.9288 106.001 10.0111C105.188 9.07253 104.093 8.60326 102.716 8.60326C101.256 8.60326 100.109 9.06211 99.2751 9.97979Z" fill="black"/>
<path d="M113.654 21.8992V0H116.939V12.201H119.285L124.134 5.94407H127.888L122.101 13.296L128.358 21.8992H124.291L119.441 15.173H116.939V21.8992H113.654Z" fill="black"/>
<path d="M130.078 19.8344C128.514 18.2285 127.732 16.2576 127.732 13.9216C127.732 11.5857 128.514 9.62523 130.078 8.04014C131.663 6.4342 133.592 5.63123 135.866 5.63123C138.139 5.63123 140.058 6.4342 141.622 8.04014C143.207 9.62523 144 11.5857 144 13.9216V15.0166H131.017C131.267 16.3306 131.841 17.363 132.737 18.1138C133.634 18.8646 134.677 19.24 135.866 19.24C137.326 19.24 138.494 18.875 139.37 18.1451C139.766 17.8531 140.11 17.4881 140.402 17.0501H143.843C143.405 18.0721 142.853 18.9376 142.185 19.6467C140.475 21.357 138.369 22.2121 135.866 22.2121C133.592 22.2121 131.663 21.4195 130.078 19.8344ZM131.173 12.3574H140.559C140.371 11.3146 139.87 10.4282 139.057 9.69823C138.264 8.96825 137.201 8.60326 135.866 8.60326C134.74 8.60326 133.738 8.9474 132.862 9.63566C131.987 10.3031 131.423 11.2103 131.173 12.3574Z" fill="black"/>
<g clip-path="url(#clip0_1002_1747)">
<path d="M26.7962 20.4607C26.5555 20.589 26.368 20.6882 26.1823 20.7881C25.4152 21.1921 24.6025 21.5028 23.7616 21.7136C21.8215 22.2201 19.8464 22.2734 17.8572 22.255C17.7256 22.255 17.6298 22.2434 17.6231 22.0726C17.6165 21.9018 17.4807 21.9518 17.3832 21.9635C17.005 22.0093 16.6285 22.0793 16.2487 22.1076C15.454 22.1676 14.6576 22.245 13.8621 22.2475C9.34385 22.2609 4.82478 22.2534 0.305714 22.2534C0.00166601 22.2534 0.000833008 22.2534 0.000833008 21.9385C0.00416504 15.2394 0.00777474 8.54095 0.0116621 1.84301C0.0116621 1.33321 0 0.815913 0 0.30278C0 0.000398346 0 0.000398342 0.29905 0.000398342C3.72882 0.000398342 7.15776 0.000398342 10.5859 0.000398342C11.9603 0.000398342 13.3348 -0.0179278 14.7084 0.0270546C15.5664 0.0545439 16.4203 0.185326 17.2758 0.276957C17.4424 0.293617 17.6356 0.376085 17.6481 0.0836992C17.6481 0.0553769 17.7439 0.00872842 17.7947 0.00956143C18.6894 0.0203905 19.5865 0.00206436 20.4778 0.06454C21.3348 0.126993 22.1881 0.232922 23.0343 0.381916C24.2533 0.585722 25.4244 1.0115 26.4897 1.63809L26.5979 1.7014C26.7454 1.7847 26.7995 1.72889 26.7979 1.57478C26.7979 1.22742 26.7979 0.880055 26.7979 0.533524C26.7979 0.477712 26.7979 0.4219 26.7979 0.366922C26.7879 0.20032 26.8628 0.148674 27.0261 0.169499C28.8854 0.399409 30.6572 0.878389 32.2307 1.94797C33.1597 2.57571 33.9423 3.39659 34.5248 4.35453C35.0401 5.2195 35.4204 6.15798 35.6527 7.13761C35.8909 8.07916 35.9985 9.04897 35.9726 10.0198C35.951 10.8037 35.9543 11.5892 35.9726 12.3731C35.9916 13.2124 35.902 14.0507 35.7061 14.8671C35.4337 16.0158 35.028 17.1071 34.3782 18.1C33.7243 19.1111 32.8464 19.9582 31.8126 20.5757C30.936 21.0981 29.9833 21.4804 28.9887 21.7086C28.3897 21.8502 27.7825 21.9585 27.1769 22.0693C26.8095 22.1359 26.7962 22.1134 26.7962 21.7494V20.4607ZM10.321 11.1294H10.3293C10.3293 13.2747 10.3293 15.4197 10.3293 17.5644C10.3293 17.7585 10.3834 17.8334 10.5884 17.8318C11.7821 17.8234 12.9758 17.8318 14.1703 17.8243C15.2682 17.8151 16.3611 17.746 17.419 17.4003C17.5806 17.3478 17.6623 17.3928 17.6414 17.5719C17.619 17.7701 17.7023 17.8368 17.903 17.8318C18.6386 17.8151 19.3741 17.8259 20.1096 17.8026C20.9985 17.7743 21.8815 17.6835 22.7253 17.3744C23.4009 17.1245 23.9981 16.7655 24.4654 16.2082C25.1119 15.431 25.4276 14.5147 25.5958 13.5426C25.8374 12.0743 25.859 10.5782 25.66 9.10351C25.5409 8.16055 25.2868 7.2534 24.7603 6.44455C24.0281 5.31832 22.9144 4.82685 21.649 4.61193C20.3837 4.39702 19.1175 4.44116 17.848 4.43283C17.6714 4.43283 17.6431 4.51614 17.6423 4.66441C17.6423 4.90348 17.6148 4.90598 17.3857 4.85267C16.9101 4.73188 16.4352 4.58194 15.9563 4.54779C14.9891 4.47365 14.017 4.45199 13.0466 4.43117C12.2202 4.41284 11.3939 4.43117 10.5684 4.42201C10.3751 4.42201 10.3001 4.48615 10.3185 4.67191C10.3214 4.7274 10.3214 4.78301 10.3185 4.83851L10.321 11.1294ZM5.06635 11.1069C5.06635 13.2661 5.06635 15.4249 5.06635 17.5835C5.06635 17.7235 5.07635 17.8293 5.25878 17.8284C6.26616 17.8251 7.27271 17.8251 8.27843 17.8284C8.41005 17.8284 8.47003 17.7701 8.46753 17.6402C8.46753 17.4602 8.46753 17.2798 8.46753 17.0987C8.46753 12.9759 8.46753 8.85278 8.46753 4.72939C8.46753 4.437 8.4617 4.43034 8.16181 4.43034H5.36457C5.07135 4.43034 5.06635 4.43034 5.06635 4.73772V11.1069ZM26.802 11.1311V16.3998C26.802 16.7539 26.8079 17.1079 26.802 17.4611C26.802 17.611 26.8503 17.6668 26.997 17.6343C27.1436 17.6019 27.2693 17.5827 27.4035 17.551C28.2523 17.3353 29.0237 16.9771 29.6243 16.3157C30.2998 15.566 30.6239 14.6588 30.8071 13.6934C31.0411 12.4302 31.1003 11.1408 30.9829 9.86155C30.9104 8.99939 30.7713 8.15888 30.4623 7.3467C29.8608 5.76398 28.6838 4.92264 27.0578 4.63859C26.8079 4.59527 26.8037 4.60777 26.8037 4.86767L26.802 11.1311Z" fill="black"/>
</g>
<defs>
<clipPath id="clip0_1002_1747">
<rect width="41.3489" height="22.2571" fill="white"/>
</clipPath>
</defs>
</svg>
