<svg width="26" height="21" viewBox="0 0 26 21" fill="none" xmlns="http://www.w3.org/2000/svg">
<path fill-rule="evenodd" clip-rule="evenodd" d="M9.17935e-07 0L2.69678e-06 2.94L1.28508e-07 18.06L0 21H2.94H17.85L25.2 10.5L17.85 7.80248e-07L2.94 1.28512e-07L9.17935e-07 0ZM2.94 2.94L2.94 18.06H16.3193L21.6113 10.5L16.3193 2.94L2.94 2.94ZM12.5998 10.5C12.5998 11.6598 13.54 12.6 14.6998 12.6C15.8596 12.6 16.7998 11.6598 16.7998 10.5C16.7998 9.34021 15.8596 8.40001 14.6998 8.40001C13.54 8.40001 12.5998 9.34021 12.5998 10.5Z" fill="#323232"/>
</svg>
